<?xml version="1.0" standalone="no"?><!DOCTYPE svg PUBLIC "-//W3C//DTD SVG 1.1//EN" "http://www.w3.org/Graphics/SVG/1.1/DTD/svg11.dtd"><svg t="1755065235771" class="icon" viewBox="0 0 1024 1024" version="1.1" xmlns="http://www.w3.org/2000/svg" p-id="7343" xmlns:xlink="http://www.w3.org/1999/xlink" width="200" height="200"><path d="M853.333 362.667a42.667 42.667 0 1 0 85.334 0h-85.334zM464 597.333A42.667 42.667 0 1 0 464 512v85.333z m304 0a42.667 42.667 0 1 0 85.333 0H768z m-170.667 0a42.667 42.667 0 1 0 85.334 0h-85.334z m-384-384h597.334V128H213.333v85.333z m-42.666 256V256H85.333v213.333h85.334zM853.333 256v106.667h85.334V256h-85.334z m-256 384h256v-85.333h-256V640z m256 0v170.667h85.334V640h-85.334z m0 170.667h-256V896h256v-85.333z m-256 0V640H512v170.667h85.333z m0 0H512A85.333 85.333 0 0 0 597.333 896v-85.333z m256 0V896a85.333 85.333 0 0 0 85.334-85.333h-85.334z m0-170.667h85.334a85.333 85.333 0 0 0-85.334-85.333V640z m-256-85.333A85.333 85.333 0 0 0 512 640h85.333v-85.333zM768 512v85.333h85.333V512H768z m-85.333 85.333V512h-85.334v85.333h85.334z m42.666-128A42.667 42.667 0 0 1 768 512h85.333a128 128 0 0 0-128-128v85.333z m0-85.333a128 128 0 0 0-128 128h85.334a42.667 42.667 0 0 1 42.666-42.667V384z m-640 85.333a128 128 0 0 0 128 128V512a42.667 42.667 0 0 1-42.666-42.667H85.333z m725.334-256A42.667 42.667 0 0 1 853.333 256h85.334a128 128 0 0 0-128-128v85.333zM213.333 128a128 128 0 0 0-128 128h85.334a42.667 42.667 0 0 1 42.666-42.667V128zM464 512H213.333v85.333H464V512zM256 362.667a64 64 0 1 0 128 0 64 64 0 1 0-128 0zM448 362.667a64 64 0 1 0 128 0 64 64 0 1 0-128 0z" p-id="7344"></path></svg>