<?xml version="1.0" standalone="no"?><!DOCTYPE svg PUBLIC "-//W3C//DTD SVG 1.1//EN" "http://www.w3.org/Graphics/SVG/1.1/DTD/svg11.dtd"><svg t="1755053393715" class="icon" viewBox="0 0 1024 1024" version="1.1" xmlns="http://www.w3.org/2000/svg" p-id="2527" xmlns:xlink="http://www.w3.org/1999/xlink" width="200" height="200"><path d="M665.856 748.330667a13.653333 13.653333 0 0 0 1.706667 20.821333 175.189333 175.189333 0 0 1 53.973333 105.216 57.045333 57.045333 0 1 0 60.970667-71.722667 175.061333 175.061333 0 0 1-97.365334-54.314666 13.653333 13.653333 0 0 0-19.285333 0z" fill="#FB6500" p-id="2528"></path><path d="M897.450667 658.048c-9.258667 9.216-15.061333 21.333333-16.426667 34.346667a175.061333 175.061333 0 0 1-54.101333 97.493333 13.653333 13.653333 0 1 0 20.821333 17.408 175.061333 175.061333 0 0 1 105.173333-53.930667 57.045333 57.045333 0 1 0-55.296-95.317333h-0.213333z" fill="#0082EF" p-id="2529"></path><path d="M736.725333 497.109333a57.002667 57.002667 0 0 0 34.346667 97.024c37.546667 6.912 71.765333 25.941333 97.493333 54.101334a13.653333 13.653333 0 1 0 17.450667-20.821334A175.189333 175.189333 0 0 1 832 522.24a57.088 57.088 0 0 0-95.317333-25.130667z" fill="#2DBC00" p-id="2530"></path><path d="M708.693333 586.24l-0.981333 1.024a174.890667 174.890667 0 0 1-106.752 55.893333 56.661333 56.661333 0 0 0-25.258667 95.274667 57.045333 57.045333 0 0 0 96.981334-34.346667c6.997333-37.546667 26.069333-71.808 54.314666-97.493333a13.653333 13.653333 0 1 0-18.261333-20.352z" fill="#FFCC00" p-id="2531"></path><path d="M364.074667 93.866667c-102.272 11.306667-194.986667 55.04-261.632 123.306666A345.472 345.472 0 0 0 38.570667 307.072a312.874667 312.874667 0 0 0 22.058666 315.946667 490.666667 490.666667 0 0 0 74.965334 85.76l-12.288 96.64-1.365334 4.096c-0.341333 1.194667-0.341333 2.56-0.512 3.754666l-0.341333 3.072 0.341333 3.072a31.104 31.104 0 0 0 46.762667 24.064h0.512l1.877333-1.365333 29.397334-14.677333L287.573333 783.36c41.642667 11.946667 84.778667 17.92 128.085334 17.621333a459.349333 459.349333 0 0 0 157.141333-27.306666 56.832 56.832 0 0 1-38.784-59.648 385.749333 385.749333 0 0 1-161.536 16.085333l-8.746667-1.194667a390.528 390.528 0 0 1-58.026666-12.16 39.68 39.68 0 0 0-31.104 3.285334l-2.389334 1.152-72.106666 42.368-3.029334 1.877333c-1.706667 1.024-2.56 1.365333-3.413333 1.365333a4.949333 4.949333 0 0 1-4.608-5.12l2.730667-11.093333 3.242666-12.117333 5.12-20.010667 5.973334-22.186667a30.208 30.208 0 0 0-10.922667-33.621333 315.050667 315.050667 0 0 1-72.746667-75.861333 246.4 246.4 0 0 1-17.792-248.96 284.672 284.672 0 0 1 51.242667-71.722667C210.56 209.706667 287.402667 173.824 372.48 164.608a403.370667 403.370667 0 0 1 88.448 0c84.522667 9.728 161.024 46.08 215.338667 102.144 21.034667 21.674667 38.101333 46.08 50.730666 72.064 16.896 34.474667 25.429333 71.04 25.429334 108.416 0 3.925333-0.341333 7.850667-0.512 11.648a56.874667 56.874667 0 0 1 70.016 8.192l2.56 3.072a311.168 311.168 0 0 0-31.061334-161.92 348.757333 348.757333 0 0 0-63.189333-89.813333 428.629333 428.629333 0 0 0-260.608-124.16A480.384 480.384 0 0 0 364.074667 93.866667z" fill="#0082EF" p-id="2532"></path></svg>